<?xml version="1.0" encoding="UTF-8"?>
<svg id="Layer_2" data-name="Layer 2" xmlns="http://www.w3.org/2000/svg" viewBox="0 0 715.37 299.33">
  <defs>
    <style>
      .cls-1 {
        fill: #df9103;
      }

      .cls-1, .cls-2, .cls-3, .cls-4 {
        stroke-width: 0px;
      }

      .cls-2 {
        fill: #d47700;
      }

      .cls-3 {
        fill: #c17f06;
      }

      .cls-4 {
        fill: #d97904;
      }
    </style>
  </defs>
  <g id="Layer_1-2" data-name="Layer 1">
    <g>
      <path class="cls-4" d="m97.04,187.72h84.73c1.53,0,2.77,1.24,2.77,2.77v2c0,5.78-4.69,10.45-10.45,10.45h-69.36c-5.78,0-10.45-4.69-10.45-10.45v-2c0-1.53,1.24-2.77,2.77-2.77Z"/>
      <rect class="cls-4" x="94.27" y="167.06" width="90.28" height="15.23" rx="2.77" ry="2.77"/>
      <rect class="cls-4" x="94.27" y="146.4" width="90.28" height="15.23" rx="2.77" ry="2.77"/>
      <rect class="cls-4" x="94.27" y="125.73" width="90.28" height="15.23" rx="2.77" ry="2.77"/>
      <path class="cls-4" d="m177.13,100.21v25.52h-11.33v-25.79c0-13.96-11.31-25.27-25.27-25.27h-2.24c-13.96,0-25.27,11.31-25.27,25.27v25.79h-11.33v-25.52c0-19.87,16.1-35.98,35.97-35.98h3.49c19.87,0,35.97,16.11,35.97,35.98h0Z"/>
    </g>
    <path class="cls-2" d="m236.88,17.49c-20.34-5.78-56.85-13.25-101.58-6.39-52.11,7.98-88.58,31.3-106.11,44.28-1.44,14.36-1.86,31.71.45,51.04.93,7.91,2.33,16.15,4.3,24.65,11.27,48.68,35.28,79.9,40.89,86.95,1.65,2.07,3.28,4.03,4.84,5.86-15.72-16.62-37.33-43.37-54.16-80.98C6.52,100.42,1.7,62.2.54,38.12,21.8,25.61,71.56.17,139.78,0c39.05-.09,72.07,8.13,97.11,17.49Z"/>
    <path class="cls-1" d="m248.89,103.06c-3.21,38.8-15.89,107.96-69.09,163.64-12.75,13.35-26.04,24.04-38.82,32.62-20.9-10.49-53.5-30.37-82.66-65.8-8.39-10.2-38.11-47.94-51.92-106.68-3.49-14.79-5.43-28.72-6.4-41.42,3.87,21.62,11.93,51.19,29.78,82.43,24.36,42.64,56.66,70.35,82.14,87.37,10.42,6.97,19.68,12.14,26.81,15.81.4.21.79.41,1.18.61,6.99-3.76,15.66-8.96,25.08-16.03,9.44-7.05,19.61-15.97,29.58-27.14,28.64-32.13,39.38-64.7,44.86-82.08,4.84-15.35,7.78-29.95,9.45-43.34h0Z"/>
    <path class="cls-3" d="m267.36,145.66c-17.61,56.82-48.96,92.03-56.98,100.7-6.08,6.59-12.22,12.54-18.29,17.9,14.45-16.54,37.68-47.46,51.29-92.49,15.29-50.61,10.78-93.76,6.88-115.99-9.18-4.96-23.69-12.02-42.61-17.83-11.08-3.39-23.66-6.36-37.56-8.24h-.01c-9.75-1.3-20.14-2.05-31.13-2.04-29.5.06-54.75,5.7-74.45,12.39,21.39-8.8,53.43-19.05,93.36-21.44,21.7-1.31,41.59-.05,59.22,2.53,25.74,3.75,46.62,10.3,61.12,15.76,2.43,24.26,3.17,63.55-10.84,108.74h0Z"/>
    <path class="cls-4" d="m310.52,101.65l-10.21-16.22,48.11.14,25.74-.14,14.87,8.15-14.61,8.04-39.49.03-8.03-4.17-.31.31,6.8,11.59v14.52l-6.8,11.59.31.31,8.03-4.17h39.24l14.8,8.38-14.8,8h-39.24l-8.03-4.17-.31.31,6.8,11.59.17,62.58-11.5-7.09-11.37,7.09-.17-116.66Z"/>
    <path class="cls-4" d="m364.37,156.73h12.76v48.12l-3.79,6.47.17.17,4.48-2.33h21.82l4.48,2.33.17-.17-2.67-4.57v-50.02h11.9v52.78l-8.8,8.8h-31.82l-8.71-8.71v-52.87Z"/>
    <path class="cls-4" d="m430.08,209.17v-43.29l-2.59-9.14h40.71l6.21,6.21c4.92,4.92,9.4,13.63,9.4,24.75,0,12.16-4.31,19.49-9.23,24.41l-6.21,6.21h-40.88l2.59-9.14Zm13.63,0h20.87l4.48,2.33.17-.17-3.19-6.21c2.76-5,4.66-8.97,4.66-17.42s-2.16-12.68-4.83-17.77l3.19-6.21-.17-.17-4.48,2.33h-20.7l-4.48-2.33-.17.17,3.8,6.47v34.67l-3.8,6.47.17.17,4.48-2.33Z"/>
    <path class="cls-4" d="m497.27,209.17v-43.29l-2.59-9.14h40.71l6.21,6.21c4.92,4.92,9.4,13.63,9.4,24.75,0,12.16-4.31,19.49-9.23,24.41l-6.21,6.21h-40.88l2.59-9.14Zm13.63,0h20.87l4.48,2.33.17-.17-3.19-6.21c2.76-5,4.66-8.97,4.66-17.42s-2.16-12.68-4.83-17.77l3.19-6.21-.17-.17-4.48,2.33h-20.7l-4.48-2.33-.17.17,3.8,6.47v34.67l-3.8,6.47.17.17,4.48-2.33Z"/>
    <path class="cls-4" d="m558.32,207.87l18.2-51.14h16.04l19.06,50.71v10.87h-12.76v-9.83l-1.21-3.19,1.73-3.02-.17-.17-2.85,1.47h-24.15l-2.85-1.47-.17.17,2.07,3.62-1.21,3.71v8.71h-11.73v-10.44Zm19.15-13.28h13.97l5.52,2.33.17-.17-4.48-6.04-6.9-19.75-1.21-7.42h-.43l-1.21,7.42-6.81,20.01-4.31,5.78.17.17,5.52-2.33Z"/>
    <path class="cls-4" d="m630.34,170.18l3.71-6.47-.17-.17-4.4,2.33h-16.65v-9.14h47.78v9.14h-16.65l-4.4-2.33-.17.17,3.71,6.47v48.12h-12.76v-48.12Z"/>
    <path class="cls-4" d="m662.07,207.87l18.2-51.14h16.04l19.06,50.71v10.87h-12.76v-9.83l-1.21-3.19,1.73-3.02-.17-.17-2.85,1.47h-24.15l-2.85-1.47-.17.17,2.07,3.62-1.21,3.71v8.71h-11.73v-10.44Zm19.15-13.28h13.97l5.52,2.33.17-.17-4.48-6.04-6.9-19.75-1.21-7.42h-.43l-1.21,7.42-6.81,20.01-4.31,5.78.17.17,5.52-2.33Z"/>
  </g>
</svg>